<?xml version="1.0" encoding="UTF-8"?>
<svg version="1.1" xmlns="http://www.w3.org/2000/svg" width="512" height="512">
<path d="M0 0 C0.6581369 0.00021149 1.3162738 0.00042297 1.99435425 0.00064087 C32.36527834 0.09778142 59.15423465 12.22011471 80.6875 33.375 C82.923154 35.66108229 84.65486356 37.70104533 86.4375 40.375 C89.10430559 40.72669569 89.10430559 40.72669569 92.23046875 40.52734375 C93.4110083 40.49640625 94.59154785 40.46546875 95.80786133 40.43359375 C97.06751709 40.39363281 98.32717285 40.35367188 99.625 40.3125 C120.15327351 40.02269517 137.42618278 44.84221319 152.43334961 59.31787109 C153.77957306 60.65879354 155.10910464 62.01641384 156.4375 63.375 C157.43523437 64.32439453 157.43523437 64.32439453 158.453125 65.29296875 C170.1499818 77.226924 174.65573478 93.90368739 174.625 110.0625 C174.58756113 113.5008199 174.52619747 116.93763181 174.4375 120.375 C175.20191406 120.32859375 175.96632813 120.2821875 176.75390625 120.234375 C195.81621263 119.59208309 212.52604705 127.09809092 227.4375 138.375 C228.54931641 139.20644531 228.54931641 139.20644531 229.68359375 140.0546875 C243.56032674 151.27892626 254.2606543 169.71717113 256.4375 187.375 C258.20020646 210.74918199 255.0193945 231.72247702 239.4296875 250.09375 C238.44355469 251.22296875 238.44355469 251.22296875 237.4375 252.375 C236.25994141 253.84839844 236.25994141 253.84839844 235.05859375 255.3515625 C223.90362751 268.72566402 204.59104611 278.42465603 187.4375 280.375 C175.72854985 281.234091 163.92714048 281.62556321 152.625 278.125 C145.92015265 276.11563888 142.46668535 276.86879467 136.046875 279.328125 C123.13632028 283.07274477 108.29570098 280.95233009 96.51953125 274.8671875 C88.03187764 269.83313088 80.30662023 263.05473607 75.4375 254.375 C75.4375 253.715 75.4375 253.055 75.4375 252.375 C68.15433459 254.52568597 68.15433459 254.52568597 63.03173828 259.74462891 C62.12137442 262.71693251 61.5171304 265.62213996 61 268.6875 C60.66609253 270.32549561 60.66609253 270.32549561 60.32543945 271.99658203 C59.63932589 275.44818112 59.02945621 278.90609783 58.4375 282.375 C58.23543945 283.51984863 58.03337891 284.66469727 57.82519531 285.84423828 C56.75113885 291.96180455 55.74116168 298.08508964 54.82299805 304.22802734 C54.4375 306.375 54.4375 306.375 53.4375 309.375 C55.03851563 309.30732422 55.03851563 309.30732422 56.671875 309.23828125 C62.47130761 309.24465706 68.02270149 310.41073247 73.6875 311.5625 C75.35486206 311.89979126 75.35486206 311.89979126 77.0559082 312.24389648 C88.98678443 314.76225718 101.27911942 318.31658629 109.28515625 328.19140625 C111.70278536 332.77260854 111.4902251 337.40931558 110.4375 342.375 C106.61950012 350.44890655 97.46324807 354.49396223 89.4375 357.375 C77.70892895 360.98630668 65.62898438 363.12026966 53.4375 364.375 C52.59114347 389.21887285 58.40549895 413.74233536 74.6640625 432.81640625 C76.76818826 434.66562691 78.80375043 435.47161491 81.4375 436.375 C81.85257812 435.82972656 82.26765625 435.28445313 82.6953125 434.72265625 C92.30269284 422.96466985 106.47060078 415.00089399 121.4375 412.375 C139.56359178 411.01839666 156.39291929 412.82789853 171.09375 424.48046875 C173.63216669 426.70158336 176.05069774 428.99228474 178.4375 431.375 C179.41203125 432.33212891 179.41203125 432.33212891 180.40625 433.30859375 C185.08936477 438.24845824 191.4375 446.32386572 191.4375 453.375 C192.4275 453.045 193.4175 452.715 194.4375 452.375 C212.05195043 450.79253698 226.86243562 453.70901742 240.6875 465.25390625 C249.81443729 473.81040996 256.35978591 485.62208548 256.94970703 498.24731445 C257.15489975 506.41816804 257.15489975 506.41816804 254.43431854 510.04674339 C250.58558358 513.03686191 247.53822341 513.07490413 242.85949707 513.00991821 C241.99712323 513.01771817 241.13474938 513.02551812 240.246243 513.03355443 C237.35708657 513.05349535 234.46924428 513.03770177 231.58007812 513.02197266 C229.50865408 513.02874784 227.43723606 513.03765041 225.36582947 513.04852295 C219.73978623 513.07133447 214.11420098 513.06247208 208.48814964 513.04662752 C202.60345592 513.03397825 196.71880169 513.04570594 190.83410645 513.05355835 C180.95134431 513.06265772 171.06876894 513.05065933 161.18603516 513.02685547 C149.75640093 512.99964379 138.32721263 513.00845774 126.89758921 513.0359875 C117.08853539 513.05866925 107.2796159 513.06188317 97.47054434 513.04879415 C91.61017642 513.04099456 85.75001818 513.03997217 79.8896637 513.05647659 C74.38032189 513.07090835 68.87155563 513.0609228 63.36227608 513.03200531 C61.33900979 513.02538764 59.31569517 513.02730373 57.29244804 513.03831863 C54.53281005 513.05195867 51.7750226 513.03487737 49.01550293 513.00991821 C48.21248765 513.02107182 47.40947236 513.03222543 46.58212328 513.04371703 C42.51987771 512.97232086 40.66247588 512.5540593 37.44287872 509.99156761 C35.26430235 507.14901607 34.75733116 505.90580597 34.8125 502.375 C34.79960937 501.55 34.78671875 500.725 34.7734375 499.875 C35.75236596 496.18962226 37.48668551 494.75374968 40.4375 492.375 C43.28463716 491.89236534 45.52701646 491.71758233 48.36579895 491.77372742 C49.15819668 491.76945529 49.95059441 491.76518317 50.76700419 491.76078159 C53.41922121 491.75255296 56.06985282 491.78003311 58.72192383 491.80737305 C60.62411461 491.80878355 62.52630812 491.80799149 64.42849731 491.80516052 C69.591498 491.80372506 74.75391871 491.83313622 79.91678452 491.86803031 C85.31263179 491.89927191 90.70849214 491.90222282 96.10441589 491.90815735 C106.32188428 491.92370222 116.53908539 491.96473954 126.75643605 492.0149048 C138.38869921 492.07077812 150.0209751 492.09827973 161.65333903 492.12338197 C185.5815409 492.1756547 209.50950548 492.26360965 233.4375 492.375 C232.52554724 490.94063346 231.60446178 489.51207135 230.6796875 488.0859375 C230.16776855 487.28978027 229.65584961 486.49362305 229.12841797 485.67333984 C224.91226644 479.94263662 218.426356 475.75678362 211.4375 474.375 C203.37174839 473.59350971 196.98213013 474.1000175 189.61328125 477.46484375 C186.33207811 478.83741167 183.92677406 478.97891282 180.4375 478.375 C177.25558266 476.8152366 176.28879833 476.2523845 174.4375 473.375 C173.47411599 470.33084978 172.69472324 467.28255885 171.96484375 464.17529297 C169.48162843 453.90449412 164.08554478 446.42728639 155.4375 440.375 C144.16564601 434.30902235 132.80715552 432.60480034 120.19140625 434.98828125 C109.49714141 438.51164572 101.48971677 445.01161946 95.97265625 454.76171875 C91.9422619 461.62261905 91.9422619 461.62261905 88.4375 463.375 C80.28919348 464.58215652 74.94156714 461.03993165 68.4375 456.375 C43.65221818 436.77513659 35.89277359 411.65377182 31.953125 381.56640625 C31.85290039 380.80529541 31.75267578 380.04418457 31.64941406 379.26000977 C31.33473615 374.97596722 31.4375 370.67058409 31.4375 366.375 C24.5075 366.375 17.5775 366.375 10.4375 366.375 C10.63458451 373.06195395 10.63458451 373.06195395 10.88793945 379.74682617 C10.95607069 384.33095928 10.93124559 386.67326955 8.23046875 390.51171875 C5.30243519 392.46510618 3.91278455 393.05430132 0.4375 393 C-0.3875 393.01289063 -1.2125 393.02578125 -2.0625 393.0390625 C-5.91254068 392.01639544 -7.26684604 390.6376728 -9.5625 387.375 C-10.16255825 383.7433431 -10.03388427 380.2303363 -9.875 376.5625 C-9.7203125 371.5196875 -9.7203125 371.5196875 -9.5625 366.375 C-16.4925 366.375 -23.4225 366.375 -30.5625 366.375 C-30.5625 369.675 -30.5625 372.975 -30.5625 376.375 C-30.76409445 378.53447856 -31.01423031 380.69047938 -31.33203125 382.8359375 C-31.49896484 383.96773438 -31.66589844 385.09953125 -31.83789062 386.265625 C-32.01513672 387.41546875 -32.19238281 388.5653125 -32.375 389.75 C-32.54064453 390.89210938 -32.70628906 392.03421875 -32.87695312 393.2109375 C-34.47161039 403.80186879 -36.45073581 414.11307581 -41.125 423.8125 C-41.466521 424.52841309 -41.80804199 425.24432617 -42.15991211 425.98193359 C-45.74160143 433.19023377 -50.31210865 439.30749476 -55.5625 445.375 C-56.13484375 446.04789062 -56.7071875 446.72078125 -57.296875 447.4140625 C-63.56858477 454.21358943 -74.09876078 462.85464388 -83.5 463.75 C-86.34858676 463.6446918 -87.59390245 463.3585511 -90.1875 462 C-93.04097806 458.84615583 -94.97805525 455.4554204 -97.08984375 451.77734375 C-98.89795796 448.82776751 -100.95925014 446.64449988 -103.5625 444.375 C-104.325625 443.694375 -105.08875 443.01375 -105.875 442.3125 C-116.49908386 434.65327675 -127.75398609 432.96413311 -140.5625 434.375 C-151.95128027 437.28463356 -161.32554856 444.35092526 -167.71484375 454.140625 C-170.0492621 458.3337689 -171.02009891 462.35883083 -171.9375 467.0625 C-173.44056057 474.02829682 -173.44056057 474.02829682 -176.3125 476.6875 C-180.28749503 478.75143973 -182.12570139 479.04051979 -186.5625 478.375 C-188.09440552 477.73418494 -189.6144916 477.06474115 -191.125 476.375 C-199.02853003 473.0066767 -207.8588623 473.06647645 -215.9375 475.9375 C-222.24630295 478.88437506 -227.26112144 482.91216951 -230.67431641 489.00463867 C-231.29741699 490.11685791 -231.92051758 491.22907715 -232.5625 492.375 C-231.57243863 492.37039104 -230.58237726 492.36578207 -229.56231403 492.36103344 C-205.48471056 492.25009226 -181.40714019 492.16789822 -157.32933521 492.11593914 C-145.68552892 492.09014497 -134.04189136 492.05497109 -122.39819336 491.99780273 C-112.25089539 491.94800512 -102.10371959 491.91571782 -91.95630282 491.90455753 C-86.58203585 491.89803264 -81.20811845 491.88267184 -75.83396339 491.84634972 C-70.77701753 491.81244796 -65.7205657 491.80193534 -60.663517 491.80946159 C-58.80631133 491.80808445 -56.94908939 491.79811736 -55.09198189 491.77897263 C-52.55764522 491.75412485 -50.0251781 491.76006359 -47.49079895 491.77372742 C-46.75441014 491.75916321 -46.01802132 491.744599 -45.2593177 491.72959346 C-41.34136594 491.7867633 -39.69970914 492.26439115 -36.60848522 494.75632954 C-34.38494052 497.6022596 -33.88191854 498.81778625 -33.9375 502.375 C-33.92460937 503.2 -33.91171875 504.025 -33.8984375 504.875 C-34.88361127 508.58388949 -36.57345805 509.99600822 -39.5625 512.375 C-42.61032395 512.86715697 -45.0969247 513.05219248 -48.14050293 513.00991821 C-49.00287677 513.01771817 -49.86525062 513.02551812 -50.753757 513.03355443 C-53.64291343 513.05349535 -56.53075572 513.03770177 -59.41992188 513.02197266 C-61.49134592 513.02874784 -63.56276394 513.03765041 -65.63417053 513.04852295 C-71.26021377 513.07133447 -76.88579902 513.06247208 -82.51185036 513.04662752 C-88.39654408 513.03397825 -94.28119831 513.04570594 -100.16589355 513.05355835 C-110.04865569 513.06265772 -119.93123106 513.05065933 -129.81396484 513.02685547 C-141.24359907 512.99964379 -152.67278737 513.00845774 -164.10241079 513.0359875 C-173.91146461 513.05866925 -183.7203841 513.06188317 -193.52945566 513.04879415 C-199.38982358 513.04099456 -205.24998182 513.03997217 -211.1103363 513.05647659 C-216.61967811 513.07090835 -222.12844437 513.0609228 -227.63772392 513.03200531 C-229.66099021 513.02538764 -231.68430483 513.02730373 -233.70755196 513.03831863 C-236.46718995 513.05195867 -239.2249774 513.03487737 -241.98449707 513.00991821 C-242.78751235 513.02107182 -243.59052764 513.03222543 -244.41787672 513.04371703 C-248.44171674 512.97299585 -250.34372074 512.54497167 -253.55931854 510.04674339 C-257.41179066 504.90850847 -256.22269451 498.46483162 -255.5625 492.375 C-252.4201722 478.55929061 -243.91048274 467.522111 -232.375 459.625 C-220.16138274 452.33353724 -207.52636327 451.12050175 -193.5625 452.375 C-192.5725 452.705 -191.5825 453.035 -190.5625 453.375 C-190.42714844 452.84132813 -190.29179687 452.30765625 -190.15234375 451.7578125 C-186.2463509 438.2388672 -175.81217261 427.01651897 -163.8125 420 C-148.20649165 411.47081726 -130.13576029 409.48068103 -112.875 414 C-100.22822826 418.31105687 -88.6429308 425.60109227 -80.5625 436.375 C-71.57812032 433.35948156 -66.4676414 424.4536245 -62.08984375 416.4921875 C-57.49524952 407.11498496 -55.93592015 397.42070419 -54.3125 387.1875 C-54.1369458 386.0826123 -53.9613916 384.97772461 -53.78051758 383.83935547 C-52.80950527 377.29960475 -52.3283895 370.98490556 -52.5625 364.375 C-53.23603516 364.28001221 -53.90957031 364.18502441 -54.60351562 364.0871582 C-97.67251961 357.90351201 -97.67251961 357.90351201 -108.29296875 344.74609375 C-110.81426818 340.0370822 -110.72415298 335.4987194 -109.5625 330.375 C-105.71564458 322.28286485 -96.56468453 318.38153221 -88.5625 315.375 C-76.96150308 311.58317962 -64.76299771 309.21858336 -52.5625 309.375 C-54.78495457 297.29530573 -57.1793735 285.26073651 -59.75 273.25 C-60.01184082 272.02313477 -60.27368164 270.79626953 -60.54345703 269.53222656 C-61.830773 263.39404105 -61.830773 263.39404105 -63.5625 257.375 C-66.11201047 255.90659883 -66.11201047 255.90659883 -69.125 254.6875 C-70.13691406 254.25050781 -71.14882812 253.81351563 -72.19140625 253.36328125 C-72.97386719 253.03714844 -73.75632813 252.71101562 -74.5625 252.375 C-74.80871094 253.09945312 -75.05492187 253.82390625 -75.30859375 254.5703125 C-80.45509966 266.08181171 -92.49966616 273.92926479 -103.765625 278.4296875 C-109.52657426 280.37682398 -114.96266249 280.63531217 -121 280.6875 C-121.89162842 280.69620117 -122.78325684 280.70490234 -123.7019043 280.71386719 C-129.25905731 280.66784522 -133.64747573 279.98513736 -138.875 278.125 C-144.16515147 276.36365477 -147.01518307 276.40888383 -152.3125 278.125 C-172.24899444 284.54134304 -194.64627538 280.96875943 -212.96484375 271.58666992 C-218.70983336 268.47695062 -223.66782832 264.69548904 -228.5625 260.375 C-229.59375 259.59125 -230.625 258.8075 -231.6875 258 C-244.77571561 246.0498901 -254.43351605 228.27783785 -255.78320312 210.46166992 C-256.64373907 187.11963236 -253.16735771 167.53205407 -237.5625 149.375 C-236.85867187 148.47394531 -236.85867187 148.47394531 -236.140625 147.5546875 C-225.88242533 134.70312275 -210.98728863 127.13252517 -195.5625 122.375 C-194.76070312 122.1275 -193.95890625 121.88 -193.1328125 121.625 C-186.68951898 119.92566984 -180.18105207 120.19086718 -173.5625 120.375 C-173.58344727 119.78187012 -173.60439453 119.18874023 -173.62597656 118.57763672 C-174.25443444 98.0254732 -171.60848222 80.77448209 -157.125 65 C-155.30031602 63.09158115 -153.43972411 61.2330408 -151.5625 59.375 C-150.91667969 58.70726562 -150.27085937 58.03953125 -149.60546875 57.3515625 C-139.70882768 47.8214637 -124.10026501 40.35281857 -110.31494141 40.38183594 C-109.12433105 40.41825195 -107.9337207 40.45466797 -106.70703125 40.4921875 C-104.85501099 40.54536133 -104.85501099 40.54536133 -102.96557617 40.59960938 C-100.49051268 40.6981321 -98.01681138 40.84612416 -95.5480957 41.04882812 C-88.71906982 41.39122855 -88.71906982 41.39122855 -82.85717773 38.26489258 C-80.58487275 35.73062226 -78.58307428 33.11110232 -76.5625 30.375 C-56.5452981 9.99526434 -28.12951052 -0.03754177 0 0 Z M-61.5625 45.375 C-63.38317805 47.54750258 -63.38317805 47.54750258 -64.5625 49.375 C-63.38494141 50.2103125 -63.38494141 50.2103125 -62.18359375 51.0625 C-46.71399533 62.2993126 -46.71399533 62.2993126 -44.96875 68.4765625 C-44.69258571 72.16335571 -45.51722283 74.30489342 -47.5 77.375 C-51.02612391 79.6777748 -53.08802519 80.22525931 -57.2421875 79.9921875 C-60.83973423 79.03526429 -62.85865778 76.87864237 -65.47265625 74.31640625 C-75.21518703 65.26586831 -88.52471845 61.05899496 -101.5625 60.375 C-115.14579108 60.95206792 -126.42198311 65.39396082 -136.5625 74.375 C-137.16578125 74.85066406 -137.7690625 75.32632813 -138.390625 75.81640625 C-145.25099088 81.73424438 -150.78632252 92.54166046 -152.5625 101.375 C-152.77836765 104.47660091 -152.74761807 107.57908125 -152.75 110.6875 C-152.76224609 111.51701172 -152.77449219 112.34652344 -152.78710938 113.20117188 C-152.79919077 118.30354967 -152.11909177 122.47083441 -150.5625 127.375 C-149.96653725 131.83086106 -149.676923 135.19423066 -152.4375 138.875 C-156.05022997 141.42516233 -158.02436654 141.35915734 -162.42700195 141.00439453 C-180.917241 139.51700042 -197.55090312 142.93228202 -212.5625 154.375 C-223.71532279 163.95561869 -233.45325847 177.31654975 -234.73950195 192.45874023 C-235.28203796 212.15647192 -231.56398649 226.48528089 -217.765625 241.12890625 C-216.67507812 242.24072266 -216.67507812 242.24072266 -215.5625 243.375 C-215.02109375 243.94089844 -214.4796875 244.50679687 -213.921875 245.08984375 C-203.52552447 254.98737948 -187.65948469 260.10940464 -173.5625 260.375 C-170.51652708 260.1851785 -167.58605756 259.82109866 -164.5625 259.375 C-165.30306641 257.82039063 -165.30306641 257.82039063 -166.05859375 256.234375 C-166.70591872 254.8646729 -167.35304366 253.49487625 -168 252.125 C-168.32548828 251.44308594 -168.65097656 250.76117188 -168.98632812 250.05859375 C-169.29892578 249.39472656 -169.61152344 248.73085937 -169.93359375 248.046875 C-170.22161865 247.4394043 -170.50964355 246.83193359 -170.80639648 246.20605469 C-172.6562795 241.72619592 -172.6969504 237.64637929 -172.6875 232.8125 C-172.69330078 231.80413086 -172.69330078 231.80413086 -172.69921875 230.77539062 C-172.69311073 227.70000248 -172.54241229 225.31473687 -171.5625 222.375 C-168.61423237 221.39224412 -166.63597496 221.24085275 -163.5625 221.25 C-162.69625 221.24742187 -161.83 221.24484375 -160.9375 221.2421875 C-158.5625 221.375 -158.5625 221.375 -155.5625 222.375 C-154.82883603 225.22580856 -154.25659793 227.98358728 -153.75 230.875 C-152.30682176 238.11145738 -150.68795144 243.82963205 -145.5625 249.375 C-145.03785156 249.94347656 -144.51320313 250.51195312 -143.97265625 251.09765625 C-137.5855116 257.21428653 -130.3053291 259.59021729 -121.5625 259.875 C-111.65030428 259.53134858 -104.71853761 256.47317773 -97.53515625 249.64453125 C-93.14746791 244.59651754 -90.93922083 238.75792346 -89 232.4375 C-88.15916652 229.80815332 -87.62306291 228.44637772 -85.8125 226.3125 C-82.49453352 224.93001397 -80.12674622 224.94483235 -76.5625 225.375 C-73.75 227 -73.75 227 -70.5625 229.375 C-56.65541428 238.2228635 -44.01299231 241.43090427 -27.546875 238.9140625 C-19.17590042 236.61879528 -11.08714472 232.05775508 -4.5625 226.375 C-1.69641871 224.94195936 0.25050783 225.06855845 3.4375 225.375 C6.1875 227 6.1875 227 7.67578125 228.09765625 C21.5604611 238.1648188 35.49891774 241.50550869 52.453125 238.9140625 C60.82409958 236.61879528 68.91285528 232.05775508 75.4375 226.375 C78.53798928 224.82475536 81.01644218 225.08507985 84.4375 225.375 C88.94600778 228.18944273 90.16147192 230.52938957 91.375 235.625 C94.51472477 246.7954152 100.8507502 252.34229604 110.5 258.25 C117.83258949 261.05858359 127.5116448 260.44572366 134.8125 257.875 C142.87863084 254.03654173 148.83765711 248.24900743 152.51171875 240.10546875 C153.86568474 236.11212603 154.53397979 232.11500005 155.078125 227.94140625 C155.4375 225.375 155.4375 225.375 156.4375 222.375 C159.38576763 221.39224412 161.36402504 221.24085275 164.4375 221.25 C165.30375 221.24742187 166.17 221.24484375 167.0625 221.2421875 C169.4375 221.375 169.4375 221.375 172.4375 222.375 C176.34922077 234.1101623 172.35230075 245.51154989 167.1875 256.0625 C166.32125 257.7021875 166.32125 257.7021875 165.4375 259.375 C181.61854718 262.1339804 197.3489748 257.44994493 210.80859375 248.37890625 C223.54265846 238.67225663 231.96742993 226.03452577 235.4375 210.375 C236.89096551 193.26420262 234.36338298 178.33689643 223.296875 164.74609375 C221.07775083 162.21372586 218.79284262 159.78063464 216.4375 157.375 C215.91929687 156.82070312 215.40109375 156.26640625 214.8671875 155.6953125 C210.96280093 151.91357682 206.30235727 149.57097572 201.5 147.125 C200.83154053 146.7832373 200.16308105 146.44147461 199.47436523 146.08935547 C187.86912262 140.4077548 175.62004126 139.79560001 162.95703125 141.23168945 C158.48376966 141.64938025 155.98209843 141.17092624 152.4375 138.375 C151.30145409 136.10290817 151.27198944 134.77438745 151.25 132.25 C151.23582031 131.52554688 151.22164063 130.80109375 151.20703125 130.0546875 C151.4375 127.375 151.4375 127.375 152.42578125 123.62109375 C155.27417394 112.74656911 154.56915864 100.38253367 149.4375 90.375 C149.01339844 89.52679688 148.58929688 88.67859375 148.15234375 87.8046875 C141.42172323 75.54333423 130.66089684 66.88645483 117.375 62.5 C102.07890537 58.57854899 87.58772867 60.92143551 73.93359375 68.82421875 C70.25328386 71.19680431 67.07331081 73.70029841 63.9375 76.75 C61.26484692 79.105664 59.38043209 79.85643131 55.8125 80.0625 C52.44364264 79.80335713 51.32487545 79.30144927 48.375 77.375 C46.39565186 74.31020288 45.57862231 72.16844597 45.828125 68.48828125 C47.71627201 61.94028424 54.18244129 57.50884921 59.54296875 53.796875 C61.7162658 52.16578195 63.5541268 50.3293651 65.4375 48.375 C51.35708108 34.35312752 33.47155343 23.82119818 13.4375 21.375 C11.89255859 21.17583984 11.89255859 21.17583984 10.31640625 20.97265625 C-16.46214003 18.26744556 -41.7294073 27.51134728 -61.5625 45.375 Z M-8.0625 252.6875 C-16.62639364 257.146396 -24.76906694 259.26774848 -34.43359375 259.9453125 C-36.16307251 260.0693042 -36.16307251 260.0693042 -37.92749023 260.19580078 C-38.79704346 260.25493652 -39.66659668 260.31407227 -40.5625 260.375 C-40.36615967 261.37015625 -40.16981934 262.3653125 -39.9675293 263.390625 C-35.19139085 287.68893228 -30.67241033 311.76591899 -29.7734375 336.57421875 C-29.63983144 340.60141283 -29.63983144 340.60141283 -28.5625 345.375 C-22.2925 345.375 -16.0225 345.375 -9.5625 345.375 C-9.53744385 343.57313232 -9.5123877 341.77126465 -9.48657227 339.91479492 C-9.40269997 333.96358401 -9.31443283 328.01245192 -9.22316074 322.06135082 C-9.16798 318.4529594 -9.1145678 314.84455979 -9.06518555 311.23608398 C-9.01747039 307.75416857 -8.96512508 304.27235081 -8.90955925 300.79055214 C-8.87923963 298.81469447 -8.85372425 296.83876498 -8.82826233 294.86283875 C-8.80831711 293.66182022 -8.78837189 292.4608017 -8.76782227 291.22338867 C-8.75227798 290.16415695 -8.7367337 289.10492523 -8.72071838 288.01359558 C-8.5625 285.375 -8.5625 285.375 -7.5625 282.375 C-4.61423237 281.39224412 -2.63597496 281.24085275 0.4375 281.25 C1.30375 281.24742187 2.17 281.24484375 3.0625 281.2421875 C5.4375 281.375 5.4375 281.375 8.4375 282.375 C9.49598176 285.55044529 9.59384114 287.88567486 9.64282227 291.22338867 C9.6727401 293.02491646 9.6727401 293.02491646 9.70326233 294.86283875 C9.71997482 296.15978165 9.73668732 297.45672455 9.75390625 298.79296875 C9.77448293 300.1339023 9.79547959 301.47482946 9.81687927 302.81575012 C9.87202627 306.34201889 9.92146794 309.86834548 9.96972656 313.39471436 C10.0199955 316.99431493 10.07565339 320.59383173 10.13085938 324.19335938 C10.23835074 331.25383497 10.33931756 338.31438793 10.4375 345.375 C16.7075 345.375 22.9775 345.375 29.4375 345.375 C30.1722264 341.70136802 30.61409628 338.57601262 30.796875 334.88671875 C32.21762052 309.69566354 36.13088552 285.04038127 41.4375 260.375 C40.30054688 260.28863281 39.16359375 260.20226562 37.9921875 260.11328125 C26.27914573 259.09674973 15.60430594 257.17665956 5.3125 251.0625 C-0.01844537 247.93346685 -3.06090475 249.96703772 -8.0625 252.6875 Z M51.4375 329.375 C51.1075 333.995 50.7775 338.615 50.4375 343.375 C66.12606674 341.28519764 66.12606674 341.28519764 81.4375 337.375 C81.4375 336.715 81.4375 336.055 81.4375 335.375 C71.4494094 332.70286148 61.71363557 330.65951695 51.4375 329.375 Z M-62.1875 331.25 C-63.17363281 331.42402344 -64.15976563 331.59804688 -65.17578125 331.77734375 C-70.40985342 332.7207346 -75.48282853 333.79560635 -80.5625 335.375 C-80.5625 336.035 -80.5625 336.695 -80.5625 337.375 C-70.24722958 339.94757349 -60.1220308 342.04116453 -49.5625 343.375 C-49.8925 338.755 -50.2225 334.135 -50.5625 329.375 C-54.39590751 329.375 -58.42577589 330.5726014 -62.1875 331.25 Z " fill="#000000" transform="translate(255.5625,-0.375)"/>
<path d="M0 0 C3.58598889 2.54054385 6.15992797 5.04327701 8.4921875 8.765625 C8.90210938 9.38695312 9.31203125 10.00828125 9.734375 10.6484375 C13.58244889 17.62804738 13.74273274 26.02607545 12.4921875 33.765625 C10.09120579 41.34186763 6.27912589 47.51322792 -0.5078125 51.765625 C-1.12914062 52.17554688 -1.75046875 52.58546875 -2.390625 53.0078125 C-9.37023488 56.85588639 -17.76826295 57.01617024 -25.5078125 55.765625 C-33.08405513 53.36464329 -39.25541542 49.55256339 -43.5078125 42.765625 C-43.91773438 42.14429688 -44.32765625 41.52296875 -44.75 40.8828125 C-48.59807389 33.90320262 -48.75835774 25.50517455 -47.5078125 17.765625 C-45.10683079 10.18938237 -41.29475089 4.01802208 -34.5078125 -0.234375 C-33.88648438 -0.64429688 -33.26515625 -1.05421875 -32.625 -1.4765625 C-22.455808 -7.08315125 -9.72162164 -5.63801363 0 0 Z M-26.5078125 21.765625 C-27.20628375 24.6053114 -27.20628375 26.9259386 -26.5078125 29.765625 C-24.51859364 32.7494533 -23.12278682 34.36839341 -19.5703125 35.2421875 C-15.64717758 35.52453433 -13.83668879 34.98487586 -10.5078125 32.765625 C-8.28856164 29.43674871 -7.74890317 27.62625992 -8.03125 23.703125 C-8.90504409 20.15065068 -10.5239842 18.75484386 -13.5078125 16.765625 C-19.32444453 15.33492115 -23.11596156 16.67784859 -26.5078125 21.765625 Z " fill="#000000" transform="translate(475.5078125,24.234375)"/>
<path d="M0 0 C0.825 -0.01289063 1.65 -0.02578125 2.5 -0.0390625 C6.1474513 0.92979175 7.616386 2.73880209 10 5.625 C10.64697266 8.8671875 10.64697266 8.8671875 10.6640625 12.5 C10.67050781 13.81484375 10.67695313 15.1296875 10.68359375 16.484375 C10.67312012 17.16435547 10.66264648 17.84433594 10.65185547 18.54492188 C10.62506008 20.62034681 10.65162887 22.69036676 10.68359375 24.765625 C10.67714844 26.08046875 10.67070312 27.3953125 10.6640625 28.75 C10.65842285 29.94882812 10.6527832 31.14765625 10.64697266 32.3828125 C9.82215625 36.51623205 8.23608057 38.01135883 5 40.625 C2.5 41.2890625 2.5 41.2890625 0 41.25 C-0.825 41.26289063 -1.65 41.27578125 -2.5 41.2890625 C-6.1474513 40.32020825 -7.616386 38.51119791 -10 35.625 C-10.64697266 32.3828125 -10.64697266 32.3828125 -10.6640625 28.75 C-10.67050781 27.43515625 -10.67695313 26.1203125 -10.68359375 24.765625 C-10.67312012 24.08564453 -10.66264648 23.40566406 -10.65185547 22.70507812 C-10.62506008 20.62965319 -10.65162887 18.55963324 -10.68359375 16.484375 C-10.67392578 14.51210938 -10.67392578 14.51210938 -10.6640625 12.5 C-10.65842285 11.30117188 -10.6527832 10.10234375 -10.64697266 8.8671875 C-9.50412342 3.1400034 -5.84292455 -0.0912957 0 0 Z " fill="#000000" transform="translate(256,411.375)"/>
<path d="M0 0 C3.125 1.875 3.125 1.875 5 5 C5.98876625 10.02622846 5.7769173 13.70513784 3.125 18.125 C-1.29486216 20.7769173 -4.97377154 20.98876625 -10 20 C-13.125 18.125 -13.125 18.125 -15 15 C-15.98876625 9.97377154 -15.7769173 6.29486216 -13.125 1.875 C-8.70513784 -0.7769173 -5.02622846 -0.98876625 0 0 Z " fill="#000000" transform="translate(261,492)"/>
<path d="M0 0 C3.125 1.875 3.125 1.875 5 5 C5.98876625 10.02622846 5.7769173 13.70513784 3.125 18.125 C-1.29486216 20.7769173 -4.97377154 20.98876625 -10 20 C-13.125 18.125 -13.125 18.125 -15 15 C-15.98876625 9.97377154 -15.7769173 6.29486216 -13.125 1.875 C-8.70513784 -0.7769173 -5.02622846 -0.98876625 0 0 Z " fill="#000000" transform="translate(57,80)"/>
</svg>
