<?xml version="1.0" encoding="UTF-8"?>
<svg version="1.1" xmlns="http://www.w3.org/2000/svg" width="512" height="512">
<path d="M0 0 C3.58162689 1.90840908 6.22870536 4.21255485 8.875 7.3125 C9.49592529 8.00690186 10.11685059 8.70130371 10.7565918 9.41674805 C13.47008729 13.12595285 15.15571472 16.99607186 16.95703125 21.20703125 C17.52293221 22.50455574 17.52293221 22.50455574 18.1002655 23.82829285 C19.30318469 26.59080975 20.4955293 29.35774401 21.6875 32.125 C22.47650946 33.94236313 23.2662169 35.7594234 24.05664062 37.57617188 C25.60148296 41.12862287 27.1398982 44.68375821 28.67431641 48.24072266 C30.09869831 51.53638364 31.5427402 54.82200641 33.00927734 58.09912109 C33.3379631 58.83692307 33.66664886 59.57472504 34.0052948 60.33488464 C34.61684093 61.704712 35.23271388 63.07261918 35.85371399 64.43818665 C37.10996437 67.25994619 37.875 69.18336315 37.875 72.3125 C38.90947266 71.51585938 38.90947266 71.51585938 39.96484375 70.703125 C51.7439765 61.84857802 61.02523251 58.16294218 75.875 59.3125 C86.89498773 61.94801132 95.35888634 68.06382255 101.875 77.3125 C106.79492428 87.03022279 108.71892935 96.60239126 106.12109375 107.46484375 C104.33356346 112.57507741 102.13627602 116.96413197 98.875 121.3125 C97.95613181 122.60260147 97.03951004 123.89430553 96.125 125.1875 C95.01125 126.734375 95.01125 126.734375 93.875 128.3125 C94.51655029 128.39935059 95.15810059 128.48620117 95.8190918 128.57568359 C100.03606928 129.59244784 103.81688686 131.33618331 107.76953125 133.1015625 C108.63454758 133.48307465 109.4995639 133.86458679 110.39079285 134.25765991 C113.15847021 135.47956871 115.92302645 136.70836251 118.6875 137.9375 C121.40427532 139.13951865 124.12166429 140.34014221 126.83908081 141.54071045 C128.62183674 142.32941549 130.40384471 143.11981344 132.18508911 143.91192627 C136.30825796 145.74458419 140.43625698 147.56000657 144.59130859 149.31933594 C145.32008713 149.63011078 146.04886566 149.94088562 146.79972839 150.26107788 C148.13866159 150.83037388 149.48019666 151.39361082 150.8249054 151.9491272 C156.04561309 154.17730758 160.26803906 157.02490743 163.5625 161.6875 C163.95824219 162.23148438 164.35398437 162.77546875 164.76171875 163.3359375 C167.53720489 168.26364271 168.21292566 172.96290788 168.3125 178.5625 C168.35246094 179.78453125 168.39242187 181.0065625 168.43359375 182.265625 C167.66838162 192.31102293 160.34571927 199.57525626 153.55078125 206.265625 C152.64933884 207.16947937 151.74789642 208.07333374 150.81913757 209.00457764 C148.91943627 210.90330415 147.01569407 212.79638475 145.1027832 214.68164062 C142.67475294 217.07561645 140.26728381 219.48908731 137.86561298 221.90947342 C135.54161586 224.24669714 133.20187835 226.56802389 130.86328125 228.890625 C130.01188065 229.74698547 129.16048004 230.60334595 128.28327942 231.48565674 C121.48438585 238.15387986 114.20853805 243.50081343 105.125 246.625 C103.83335937 247.08326172 103.83335937 247.08326172 102.515625 247.55078125 C96.07476722 249.40872099 89.87362121 249.44533513 83.2265625 249.41015625 C82.21403412 249.4087413 81.20150574 249.40732635 80.15829468 249.40586853 C76.93883249 249.40029143 73.71944101 249.38774312 70.5 249.375 C68.31119892 249.36998204 66.12239675 249.36541965 63.93359375 249.36132812 C58.58070523 249.3503295 53.22785767 249.3336142 47.875 249.3125 C47.71789551 250.02140381 47.56079102 250.73030762 47.39892578 251.46069336 C45.50127483 259.56291229 42.83992677 267.15661151 39.75 274.875 C39.50789795 275.48400146 39.2657959 276.09300293 39.01635742 276.72045898 C27.00555253 306.89509663 11.29326128 335.25940469 -8.125 361.3125 C-8.52396484 361.85036133 -8.92292969 362.38822266 -9.33398438 362.94238281 C-14.02251901 369.23528719 -18.90709619 375.34208568 -24 381.3125 C-24.43296387 381.82103516 -24.86592773 382.32957031 -25.31201172 382.85351562 C-36.18552454 395.44675932 -47.87980891 407.2556549 -59.61328125 419.0390625 C-60.43306143 419.86291821 -61.25284161 420.68677391 -62.09746361 421.53559494 C-66.43013416 425.88895755 -70.76595404 430.23915577 -75.10424805 434.58691406 C-79.54358011 439.03732971 -83.97109334 443.49931531 -88.3961153 447.96395302 C-91.84097087 451.43512084 -95.29484316 454.8972135 -98.7510891 458.35703659 C-100.38607931 459.99684775 -102.01773783 461.63998879 -103.64574623 463.28673172 C-131.82846715 491.77376597 -164.67305002 510.3691112 -205.61456299 510.61782837 C-219.22016185 510.66222197 -231.95547019 510.09877871 -245.125 506.3125 C-245.78516113 506.13058105 -246.44532227 505.94866211 -247.12548828 505.76123047 C-281.39059962 496.11527837 -309.30543275 472.76234216 -327.375 442.4375 C-338.9110247 421.46935675 -344.56472581 399.25146057 -344.5 375.3125 C-344.49978851 374.58838928 -344.49957703 373.86427856 -344.49935913 373.1182251 C-344.46454581 361.14079439 -343.43764801 349.85913341 -340.125 338.3125 C-339.94308105 337.64702148 -339.76116211 336.98154297 -339.57373047 336.29589844 C-336.7059979 326.008965 -332.17757217 316.66474288 -327.125 307.3125 C-326.64289063 306.40886719 -326.16078125 305.50523437 -325.6640625 304.57421875 C-318.68148828 292.24371919 -306.07923523 273.78961761 -293.125 267.3125 C-289.28885043 266.95730097 -286.97870366 266.76525406 -283.6875 268.875 C-281.42340042 272.40699535 -281.3662593 274.17391434 -282.125 278.3125 C-284.63896728 282.13810238 -287.96884707 285.19261017 -291.2421875 288.36328125 C-297.5886041 294.54030951 -302.86812161 301.21187304 -308.125 308.3125 C-306.84717674 311.11262153 -305.52405532 313.16290226 -303.3488903 315.33470535 C-302.49645203 316.19311677 -302.49645203 316.19311677 -301.62679279 317.06886983 C-300.69003088 317.99689322 -300.69003088 317.99689322 -299.73434448 318.94366455 C-298.73947798 319.94109432 -298.73947798 319.94109432 -297.72451317 320.95867419 C-295.49668902 323.18979754 -293.26178254 325.4136887 -291.02685547 327.63769531 C-289.43009215 329.23389461 -287.83376886 330.83053418 -286.237854 332.42758179 C-281.89960316 336.7664075 -277.55520435 341.09903018 -273.20969915 345.43058872 C-268.67107442 349.95672853 -264.13809597 354.48851581 -259.60452271 359.01971436 C-251.99297998 366.625743 -244.37795604 374.22826631 -236.76025391 381.828125 C-228.91416069 389.65585888 -221.07017177 397.48569156 -213.22900391 405.31835938 C-212.74563607 405.80120176 -212.26226823 406.28404415 -211.76425289 406.78151813 C-209.33934022 409.20382071 -206.91446887 411.62616465 -204.48961806 414.04852915 C-184.37448035 434.14293501 -164.2520327 454.23000895 -144.125 474.3125 C-139.68876804 472.66055487 -136.4861059 470.40656419 -132.94897461 467.30957031 C-132.34541862 466.78579426 -131.74186262 466.2620182 -131.12001705 465.72237015 C-122.70365742 458.30871048 -114.84997373 450.3049144 -106.94140625 442.359375 C-105.22977215 440.64654537 -103.51776444 438.93408902 -101.80540466 437.22198486 C-98.24321501 433.65824275 -94.68437326 430.09120386 -91.12817383 426.52148438 C-86.58541636 421.96166769 -82.03603318 417.40853222 -77.48436069 412.85761642 C-73.95893983 409.33192297 -70.43613581 405.80362464 -66.91419792 402.27445221 C-65.23755875 400.59464826 -63.56032858 398.91543396 -61.88247871 397.23683929 C-59.53835484 394.89053246 -57.1975602 392.54095374 -54.85766602 390.19042969 C-54.17546997 389.50868683 -53.49327393 388.82694397 -52.79040527 388.12454224 C-38.85146265 374.09352918 -26.29983042 358.43870735 -15.27978516 342.02929688 C-14.26938041 340.52714758 -13.22160592 339.05027274 -12.16796875 337.578125 C-10.86811843 335.4258591 -10.86811843 335.4258591 -11.69433594 333.53540039 C-13.70056665 330.41821087 -16.29895562 328.01382986 -18.97265625 325.48046875 C-20.14706512 324.34109309 -21.32087498 323.20109974 -22.49414062 322.06054688 C-24.34004382 320.27652576 -26.19006413 318.49756352 -28.05102539 316.72924805 C-29.85113146 315.01409992 -31.63154261 313.28035827 -33.41015625 311.54296875 C-34.24608055 310.76290718 -34.24608055 310.76290718 -35.09889221 309.96708679 C-38.83431995 306.28186533 -40.05300227 303.55743703 -40.125 298.3125 C-38.21766488 294.80300337 -36.97361588 293.60139051 -33.1875 292.3125 C-28.40716127 292.3125 -25.91665597 294.57925266 -22.4777832 297.7644043 C-21.53885276 298.71700844 -20.60505957 299.67469649 -19.67578125 300.63671875 C-19.1770903 301.14298294 -18.67839935 301.64924713 -18.16459656 302.17085266 C-16.58394214 303.77579362 -15.00997695 305.3870487 -13.4375 307 C-11.35595301 309.13458808 -9.26797373 311.2625698 -7.17578125 313.38671875 C-6.25450439 314.33119873 -5.33322754 315.27567871 -4.3840332 316.2487793 C-2.38886038 318.53732329 -2.38886038 318.53732329 -0.125 318.3125 C11.22417025 297.07975794 21.71921015 275.71511368 29.6875 252.9375 C30.07917358 251.84949097 30.07917358 251.84949097 30.47875977 250.73950195 C31.75589344 247.0883754 31.75589344 247.0883754 31.18956947 243.38306808 C29.57407724 240.83851892 27.70769378 238.89968396 25.57235718 236.76934814 C24.66929337 235.863535 23.76622955 234.95772186 22.83580017 234.02445984 C21.83252037 233.02825778 20.82914497 232.03215198 19.82568359 231.03613281 C18.7707852 229.98179867 17.71632723 228.92702372 16.66227722 227.87184143 C13.80124565 225.0102359 10.9340883 222.15483993 8.06579924 219.30051136 C5.06866458 216.3158768 2.07719042 213.32557984 -0.91488647 210.33587646 C-6.58091744 204.67606237 -12.2520275 199.02136597 -17.92497575 193.36848617 C-24.38349646 186.93231797 -30.83634098 180.49047174 -37.28871274 174.04814005 C-50.56116492 160.79659457 -63.84073581 147.55220374 -77.125 134.3125 C-78.8644503 134.77946383 -80.60335856 135.24844701 -82.34204102 135.71826172 C-83.79466087 136.1096785 -83.79466087 136.1096785 -85.27662659 136.50900269 C-89.27690637 137.63744113 -93.16862034 138.98852543 -97.0625 140.4375 C-97.86824463 140.7368042 -98.67398926 141.0361084 -99.50415039 141.34448242 C-112.67977645 146.33037048 -125.38593107 152.37200093 -138 158.625 C-138.8262085 159.03339111 -139.65241699 159.44178223 -140.50366211 159.86254883 C-141.67360718 160.45072388 -141.67360718 160.45072388 -142.8671875 161.05078125 C-143.5463623 161.39149658 -144.22553711 161.73221191 -144.92529297 162.08325195 C-147.76644931 163.67095697 -150.42437583 165.49809596 -153.125 167.3125 C-152.59508737 167.84149084 -152.06517473 168.37048168 -151.51920414 168.91550255 C-138.63934758 181.77329724 -125.76224309 194.63384211 -112.88821507 207.49747276 C-106.66242785 213.71809855 -100.43570461 219.93778199 -94.20678711 226.15527344 C-88.77915144 231.57295761 -83.353262 236.99238346 -77.92948288 242.41392863 C-75.05624286 245.28586234 -72.18212208 248.15690225 -69.30591011 251.02585983 C-66.60093559 253.72406682 -63.89829515 256.4245894 -61.19745636 259.12693596 C-60.20380633 260.12030999 -59.20929362 261.11282192 -58.21387291 262.10442162 C-56.85879567 263.45455024 -55.50706743 264.80803769 -54.15553284 266.16171265 C-53.39689721 266.91942648 -52.63826159 267.67714031 -51.856637 268.45781517 C-48.90303841 271.62129256 -48.8361636 274.10623088 -48.9140625 278.40625 C-49.125 280.3125 -49.125 280.3125 -50.25 282.25 C-52.95176164 283.78099826 -55.01935505 284.1882742 -58.125 284.3125 C-61.90564984 282.39690073 -64.68061216 279.99642444 -67.64759827 276.99676514 C-68.52376297 276.11612396 -69.39992767 275.23548279 -70.30264282 274.32815552 C-71.26051156 273.35523696 -72.21830318 272.38224248 -73.17602539 271.40917969 C-74.19441961 270.38203022 -75.21329723 269.35535984 -76.23262024 268.32913208 C-78.42173317 266.12356372 -80.6078364 263.91507013 -82.79176521 261.70436859 C-86.24358988 258.21113311 -89.70468139 254.7271804 -93.16758728 251.24493408 C-103.01150315 241.34346871 -112.84523193 231.43196122 -122.66430664 221.50585938 C-128.09118334 216.01999049 -133.52690671 210.54304956 -138.97257036 205.07582784 C-142.41965979 201.61406955 -145.85536108 198.14150423 -149.28319371 194.6606822 C-151.41362814 192.50258692 -153.55438651 190.35497375 -155.69828606 188.2102623 C-156.69275413 187.21121065 -157.68290073 186.20783656 -158.66842651 185.19996262 C-160.01052233 183.82866798 -161.36951421 182.47396959 -162.72938538 181.12030029 C-163.48613587 180.35634319 -164.24288637 179.59238609 -165.0225687 178.80527878 C-166.99246599 177.06341745 -166.99246599 177.06341745 -169.28967953 177.51146317 C-171.26170223 178.37216452 -172.91142925 179.3393641 -174.671875 180.578125 C-175.34404053 181.04951904 -176.01620605 181.52091309 -176.70874023 182.0065918 C-177.42360596 182.5200415 -178.13847168 183.03349121 -178.875 183.5625 C-179.62144775 184.09464111 -180.36789551 184.62678223 -181.13696289 185.17504883 C-191.81719219 192.87474902 -202.03647578 201.19359894 -211.71875 210.1171875 C-213.06175841 211.34246465 -214.41290683 212.55946694 -215.79275513 213.74310303 C-221.16190789 218.35074834 -226.17365494 223.24597453 -231.1484375 228.2734375 C-231.97582428 229.1046109 -232.80321106 229.9357843 -233.65567017 230.79214478 C-236.27290321 233.42150108 -238.88684471 236.05409143 -241.5 238.6875 C-244.96330199 242.17732135 -248.42985283 245.66386758 -251.8984375 249.1484375 C-252.69422211 249.95252045 -253.49000671 250.75660339 -254.30990601 251.58505249 C-255.04472198 252.32317169 -255.77953796 253.06129089 -256.53662109 253.82177734 C-257.18311615 254.47350922 -257.82961121 255.12524109 -258.49569702 255.79672241 C-260.70629517 257.85329211 -261.91325493 258.28426732 -264.9375 258.6875 C-268.125 258.3125 -268.125 258.3125 -271 256.1875 C-273.125 253.3125 -273.125 253.3125 -273.875 250.5 C-271.98943978 242.48636905 -262.74218302 235.76955087 -257.078125 230.09765625 C-256.22627625 229.2424791 -255.37442749 228.38730194 -254.49676514 227.50621033 C-252.70293088 225.70733998 -250.9077629 223.90979874 -249.11132812 222.11352539 C-246.39163632 219.39164968 -243.68004697 216.66187536 -240.96875 213.93164062 C-239.21403309 212.17398843 -237.45884 210.41681145 -235.703125 208.66015625 C-234.90690735 207.85675308 -234.1106897 207.05334991 -233.29034424 206.2256012 C-228.29779001 201.25280531 -223.09493675 196.70629904 -217.58514404 192.31272888 C-215.34549255 190.49177225 -213.22658856 188.60199383 -211.125 186.625 C-193.21276693 170.5679625 -172.01726142 158.03999282 -151.125 146.3125 C-150.45098145 145.92884277 -149.77696289 145.54518555 -149.08251953 145.14990234 C-101.71752316 118.3125 -101.71752316 118.3125 -83.125 118.3125 C-83.13499275 117.49136467 -83.13499275 117.49136467 -83.14518738 116.65364075 C-83.21218255 110.89358466 -83.25706318 105.13364139 -83.28979492 99.37329102 C-83.30476927 97.23099259 -83.32515595 95.08872421 -83.35131836 92.9465332 C-83.6713385 66.04601662 -77.91831665 51.46010115 -59.15283203 32.11979675 C-56.13038914 29.02505031 -53.08875851 25.9496948 -50.04174805 22.87915039 C-48.46865044 21.28941315 -46.90094894 19.6943186 -45.33862305 18.09399414 C-43.05176017 15.7520838 -40.74861668 13.42731559 -38.44140625 11.10546875 C-37.41280235 10.04286079 -37.41280235 10.04286079 -36.36341858 8.95878601 C-26.40107209 -0.96124101 -13.69202178 -5.5773845 0 0 Z M-29.34765625 24.93359375 C-30.21136337 25.78873062 -31.0750705 26.64386749 -31.96495056 27.5249176 C-33.78616296 29.33466878 -35.60219002 31.14965121 -37.41333008 32.96948242 C-40.16449602 35.72694339 -42.94114025 38.45675002 -45.72070312 41.18554688 C-47.49380973 42.95410425 -49.2653457 44.72423798 -51.03515625 46.49609375 C-51.85718033 47.29969833 -52.67920441 48.10330292 -53.52613831 48.93125916 C-68.75722336 64.40629716 -69.29173614 84.26220635 -69.19842529 104.90782166 C-68.71798057 118.53187059 -64.60935855 126.62115565 -54.70465088 135.89379883 C-49.37375323 140.65191403 -43.92486945 145.13759397 -38.125 149.3125 C-26.77150197 139.98937206 -16.60693187 129.17604175 -6.18896484 118.83642578 C-3.47447785 116.14434621 -0.7505348 113.46239863 1.98193359 110.78857422 C5.29279024 107.54860213 8.58631506 104.29194175 11.86807251 101.02250671 C13.11886978 99.78212481 14.37567864 98.54777467 15.63851929 97.31965637 C17.398143 95.60601423 19.13461859 93.87179099 20.8671875 92.13085938 C21.39277756 91.6288652 21.91836761 91.12687103 22.45988464 90.60966492 C24.08888098 89.02015204 24.08888098 89.02015204 25.875 86.3125 C25.7159259 81.52693195 23.85065547 77.50911027 21.8828125 73.203125 C21.58100067 72.52677002 21.27918884 71.85041504 20.9682312 71.15356445 C19.98530299 68.95357147 18.99302459 66.757952 18 64.5625 C16.62385251 61.50167316 15.25220553 58.43885421 13.8828125 55.375 C13.54018372 54.60955872 13.19755493 53.84411743 12.84454346 53.05548096 C10.69909239 48.23797393 8.64794176 43.39238225 6.6796875 38.5 C6.20128418 37.32147461 5.72288086 36.14294922 5.22998047 34.92871094 C4.35120902 32.74555764 3.48729608 30.5563416 2.64111328 28.36035156 C-0.2055455 21.33666851 -3.46464082 16.29315265 -10.625 13.25 C-18.8160089 13.45477522 -23.93939068 19.5133059 -29.34765625 24.93359375 Z M29.1484375 104.94140625 C27.54869182 106.54302041 25.94872269 108.14441141 24.34854126 109.74559021 C20.1674316 113.93049119 15.98933558 118.11838804 11.81188965 122.3069458 C7.53658822 126.59253467 3.25840252 130.87524218 -1.01953125 135.15820312 C-9.39082397 143.54017336 -17.75893137 151.92531581 -26.125 160.3125 C-25.18822155 161.41583701 -24.24992192 162.51788255 -23.31100464 163.61940002 C-22.78865675 164.23324334 -22.26630886 164.84708666 -21.72813225 165.47953129 C-19.29407233 168.26255538 -16.69673415 170.86469913 -14.0703125 173.46484375 C-13.52390106 174.00984024 -12.97748962 174.55483673 -12.41452026 175.11634827 C-10.69537942 176.82996118 -8.97276796 178.54003444 -7.25 180.25 C-6.07268362 181.42229204 -4.89559826 182.59481614 -3.71875 183.76757812 C-0.85682511 186.61856982 2.00821457 189.46639615 4.875 192.3125 C9.90623434 188.09304705 14.64573555 183.6949024 19.29150391 179.05712891 C19.99650528 178.35709244 20.70150665 177.65705597 21.4278717 176.93580627 C23.73852988 174.6396478 26.0453718 172.33970743 28.3515625 170.0390625 C29.14427929 169.24917309 29.93699608 168.45928368 30.75373459 167.64545822 C34.94433073 163.46980107 39.13208104 159.2913151 43.31738281 155.11035156 C47.62903239 150.80419544 51.9498876 146.50740221 56.27297401 142.21273232 C59.60838589 138.89597894 62.93703717 135.57250275 66.26389694 132.24717331 C67.85374807 130.66033921 69.44608854 129.07599497 71.04100418 127.49425125 C73.27361138 125.27877998 75.49647198 123.05394545 77.71728516 120.82666016 C78.37091537 120.18224472 79.02454559 119.53782928 79.69798279 118.87388611 C85.69483932 112.82236847 90.92434641 106.44757051 91.1875 97.625 C91.08579272 91.26367206 89.37800003 86.96181318 85.00390625 82.33203125 C79.07260511 76.89407084 74.5121265 74.78455627 66.41796875 75.01171875 C51.87482443 76.73187561 38.87012011 95.18611089 29.1484375 104.94140625 Z M75.50367737 144.31056213 C74.92536667 144.89965866 74.34705597 145.48875519 73.7512207 146.09570312 C72.82885117 147.01741554 72.82885117 147.01741554 71.8878479 147.95774841 C69.8516371 149.99605374 67.82626486 152.04478913 65.80078125 154.09375 C64.39324745 155.50687737 62.98505103 156.91934502 61.57621765 158.33117676 C57.86568596 162.05317593 54.16425005 165.78409567 50.46459961 169.51690674 C46.68950574 173.32266034 42.90593034 177.11996065 39.12304688 180.91796875 C31.69867752 188.37453585 24.28388414 195.84054875 16.875 203.3125 C17.28438088 203.78409829 17.69376177 204.25569658 18.11554813 204.74158573 C18.65395549 205.36505107 19.19236284 205.98851641 19.74708557 206.63087463 C20.5467819 207.55483457 20.5467819 207.55483457 21.36263371 208.49746037 C23.36004301 210.89461578 25.08089411 213.45171493 26.83984375 216.02734375 C33.44325984 224.67169125 40.11946814 232.65158569 51.38964844 234.41943359 C70.96930236 236.43846254 95.791203 237.19905335 111.875 224.3125 C115.12581067 221.41600254 118.19542906 218.36713397 121.25 215.265625 C122.10053955 214.41321228 122.9510791 213.56079956 123.82739258 212.68255615 C125.60900487 210.89426302 127.387037 209.10239656 129.16162109 207.30712891 C131.88765675 204.54969749 134.62444413 201.80330505 137.36328125 199.05859375 C139.09698357 197.31573004 140.83007863 195.57226199 142.5625 193.828125 C143.38218262 193.0041925 144.20186523 192.18026001 145.04638672 191.33135986 C146.17391357 190.18942169 146.17391357 190.18942169 147.32421875 189.02441406 C147.98768311 188.3541217 148.65114746 187.68382935 149.3347168 186.9932251 C151.68688582 184.42658703 152.11894936 182.5326643 152.3125 179.125 C152.37308594 178.38894531 152.43367187 177.65289062 152.49609375 176.89453125 C151.45432451 172.56365409 149.27958893 170.00984682 145.875 167.3125 C140.65549351 164.53001572 135.23016197 162.33683334 129.75 160.125 C128.18672162 159.47835969 126.62422791 158.82981935 125.0625 158.17944336 C121.88691067 156.85864958 118.70785302 155.5467545 115.52636719 154.24023438 C111.14415727 152.43334838 106.79045368 150.5659252 102.4453125 148.671875 C101.79553436 148.38926315 101.14575623 148.10665131 100.47628784 147.81547546 C97.42247368 146.48660476 94.37038869 145.153951 91.31982422 143.81762695 C89.70744873 143.12092896 89.70744873 143.12092896 88.0625 142.41015625 C87.12792969 142.00289307 86.19335938 141.59562988 85.23046875 141.17602539 C80.427745 139.41532536 78.93785801 140.90289239 75.50367737 144.31056213 Z M-318.125 325.3125 C-331.68381851 355.54866528 -332.33280639 388.560739 -320.55859375 419.56640625 C-308.5630849 449.31965982 -285.21941748 472.37995127 -256.125 485.3125 C-255.05894531 485.79460937 -253.99289063 486.27671875 -252.89453125 486.7734375 C-225.09712365 498.39972965 -192.90782349 497.75791434 -164.9375 487.09765625 C-162.97031893 486.23394081 -161.03934724 485.2877335 -159.125 484.3125 C-160.78455163 480.01036127 -164.03128148 477.12825474 -167.2364502 473.94708252 C-167.86969853 473.3107142 -168.50294686 472.67434589 -169.15538454 472.01869369 C-171.2817902 469.88430085 -173.41528524 467.75713952 -175.54882812 465.62988281 C-177.07336798 464.10263348 -178.59748189 462.57495887 -180.12120056 461.04689026 C-184.26309527 456.89586576 -188.41130609 452.75120705 -192.56093407 448.60791492 C-196.89651827 444.2773858 -201.22723028 439.9419888 -205.55871582 435.60736084 C-212.83193415 428.33050221 -220.10936362 421.057875 -227.38916016 413.78759766 C-235.81694556 405.37070507 -244.23749055 396.94662045 -252.65432596 388.51877904 C-259.87189442 381.29214928 -267.09333485 374.06940608 -274.31805563 366.84992671 C-278.63721659 362.53389078 -282.95499829 358.21649836 -287.26930237 353.89560699 C-291.32275281 349.83640024 -295.38102414 345.78207709 -299.44314766 341.73155022 C-300.93728542 340.2400679 -302.42970362 338.7468608 -303.9203167 337.25185585 C-305.94682633 335.21992435 -307.97932457 333.19418562 -310.0135498 331.16998291 C-310.60945687 330.5696144 -311.20536393 329.9692459 -311.81932878 329.3506844 C-314.47601916 326.30992965 -314.47601916 326.30992965 -318.125 325.3125 Z " fill="#000000" transform="translate(344.125,1.6875)"/>
<path d="M0 0 C1.4840332 -0.03673828 1.4840332 -0.03673828 2.99804688 -0.07421875 C10.29674508 -0.10327793 15.83406782 1.07185384 21.3125 6.09375 C25.10916564 12.10513726 25.49377236 17.41222508 24.4375 24.375 C22.76764532 31.46687682 20.6385004 38.43248277 18.4375 45.375 C19.17871094 45.63796875 19.91992188 45.9009375 20.68359375 46.171875 C27.10998041 48.97943116 32.05716234 54.31856169 35.4375 60.375 C35.4375 61.035 35.4375 61.695 35.4375 62.375 C36.01081055 62.19324219 36.58412109 62.01148438 37.17480469 61.82421875 C62.02959373 54.04775046 62.02959373 54.04775046 70.79296875 57.23046875 C76.03401773 60.02760418 78.54157157 63.79215964 80.4375 69.375 C80.98804488 73.07988474 81.00826008 76.69745746 80.9375 80.4375 C80.92686523 81.45030029 80.91623047 82.46310059 80.90527344 83.5065918 C80.6923702 91.98297019 79.30085213 99.36159092 76.4375 107.375 C76.14875 108.26960938 75.86 109.16421875 75.5625 110.0859375 C72.79392396 117.92199648 68.18421877 127.46794148 61 132.0625 C54.40199075 134.49334551 49.34646744 135.26619286 42.62475586 132.58959961 C38.19168071 130.12787968 34.89406506 126.33875893 31.4375 122.6875 C30.66277344 121.89021484 29.88804687 121.09292969 29.08984375 120.27148438 C27.19379553 118.31691615 25.3104783 116.3516428 23.4375 114.375 C22.53366577 114.67917847 22.53366577 114.67917847 21.61157227 114.98950195 C20.81291748 115.25722412 20.0142627 115.52494629 19.19140625 115.80078125 C18.00913452 116.19777222 18.00913452 116.19777222 16.80297852 116.6027832 C10.48553287 118.66513025 5.10506325 119.61312726 -1.5625 119.375 C-1.64886719 119.91125 -1.73523438 120.4475 -1.82421875 121 C-2.83587773 126.6430152 -4.24689457 132.13338962 -5.875 137.625 C-6.06344482 138.29789063 -6.25188965 138.97078125 -6.44604492 139.6640625 C-8.31886774 145.78532756 -11.13296711 149.97334641 -16.8125 153.25 C-25.25351304 155.78230391 -30.44536961 154.5234078 -38.32495117 150.42602539 C-43.9229826 147.34631261 -48.81784241 143.65433215 -53.5625 139.375 C-54.24699219 138.78332031 -54.93148437 138.19164062 -55.63671875 137.58203125 C-63.6345661 130.21269842 -72.06452683 118.65130177 -74.03125 107.78515625 C-74.1142927 101.54657378 -72.90503298 97.00030257 -68.5625 92.375 C-63.3666058 88.12977414 -57.739795 86.76529924 -51.3125 85.125 C-49.80429688 84.7228125 -49.80429688 84.7228125 -48.265625 84.3125 C-40.91103316 82.375 -40.91103316 82.375 -38.5625 82.375 C-38.624375 81.09625 -38.68625 79.8175 -38.75 78.5 C-38.7585438 73.07468971 -37.32476329 68.45969544 -35.5625 63.375 C-34.8951234 61.37523678 -34.22829817 59.37528929 -33.5625 57.375 C-34.06177002 56.90191406 -34.56104004 56.42882812 -35.07543945 55.94140625 C-37.35535695 53.76616938 -39.61506956 51.57098738 -41.875 49.375 C-42.66068359 48.63121094 -43.44636719 47.88742187 -44.25585938 47.12109375 C-49.60545286 41.88532141 -53.11558808 37.58355533 -53.77734375 29.87109375 C-53.68582031 29.19175781 -53.59429687 28.51242187 -53.5 27.8125 C-53.42652344 27.13058594 -53.35304687 26.44867188 -53.27734375 25.74609375 C-51.28607923 19.14118904 -48.02106085 15.27932459 -42.1875 11.75 C-41.57753174 11.37029053 -40.96756348 10.99058105 -40.33911133 10.59936523 C-27.93153854 3.16118035 -14.34157898 0.01875942 0 0 Z M-36.5625 27.375 C-36.8925 28.365 -37.2225 29.355 -37.5625 30.375 C-35.02466615 33.08674972 -32.45365571 35.76458533 -29.875 38.4375 C-29.15376953 39.20900391 -28.43253906 39.98050781 -27.68945312 40.77539062 C-26.98369141 41.50048828 -26.27792969 42.22558594 -25.55078125 42.97265625 C-24.58458862 43.98598022 -24.58458862 43.98598022 -23.59887695 45.01977539 C-21.61731055 46.64078828 -21.61731055 46.64078828 -19.03588867 46.17749023 C-16.99459864 45.51519428 -14.99013398 44.74053652 -13 43.9375 C-7.70347073 41.86361906 -2.16823418 41.16914568 3.4375 40.375 C4.27887043 37.4812867 5.1108036 34.58540603 5.9375 31.6875 C6.17597656 30.87087891 6.41445312 30.05425781 6.66015625 29.21289062 C8.34572283 23.39452739 8.34572283 23.39452739 8.4375 17.375 C6.18194645 15.11944645 0.55178257 16.06325767 -2.57519531 16.06030273 C-14.84001527 16.2748736 -26.46707132 20.43539911 -36.5625 27.375 Z M-16.8671875 64.359375 C-21.23990868 69.55827853 -23.29373686 75.31405235 -22.94921875 82.109375 C-21.52656299 90.44412592 -17.19766332 95.70426777 -10.5 100.625 C-4.94962604 103.93160576 0.6728064 104.29997167 6.93359375 102.76171875 C14.3896167 100.18558905 19.09764336 96.10967636 22.6015625 89.01953125 C24.96316384 82.56106498 24.70215522 76.83991318 22.4375 70.375 C19.12894306 63.84670643 14.16854739 60.05591289 7.4375 57.375 C-1.54277667 54.55662857 -10.30305895 58.03442522 -16.8671875 64.359375 Z M49.125 74.875 C48.28904297 75.11347656 47.45308594 75.35195313 46.59179688 75.59765625 C44.53868566 76.18425945 42.48785723 76.77884213 40.4375 77.375 C40.25574219 78.46039063 40.07398438 79.54578125 39.88671875 80.6640625 C39.63330466 82.10946137 39.37937075 83.55476918 39.125 85 C39.00705078 85.71285156 38.88910156 86.42570312 38.76757812 87.16015625 C38.1296945 90.72576216 37.43551501 93.3788956 35.76953125 96.6484375 C34.2414417 99.16433669 34.2414417 99.16433669 34.64306641 101.31591797 C35.61922014 103.84599804 36.87717856 105.1565354 38.81640625 107.046875 C39.48994141 107.71074219 40.16347656 108.37460937 40.85742188 109.05859375 C41.56447266 109.74050781 42.27152344 110.42242187 43 111.125 C43.71091797 111.82238281 44.42183594 112.51976562 45.15429688 113.23828125 C46.90880714 114.9574658 48.66993352 116.66925872 50.4375 118.375 C54.16341679 117.13302774 54.67501014 115.541078 56.39453125 112.15844727 C56.73871094 111.44615967 57.08289063 110.73387207 57.4375 110 C57.79199219 109.269021 58.14648438 108.53804199 58.51171875 107.78491211 C63.97238211 96.25585822 65.1866414 86.02396448 64.4375 73.375 C63.43695759 72.1660569 63.43695759 72.1660569 61.45703125 72.15625 C57.16828896 72.46694802 53.24072022 73.67309275 49.125 74.875 Z M-47.875 100.875 C-48.71095703 101.11347656 -49.54691406 101.35195313 -50.40820312 101.59765625 C-52.46131434 102.18425945 -54.51214277 102.77884213 -56.5625 103.375 C-57.53630071 106.49477015 -57.53630071 106.49477015 -56.6640625 109.6015625 C-49.28223044 121.59215743 -39.47379632 132.29909585 -26.5625 138.375 C-24.40650747 138.02806144 -24.40650747 138.02806144 -22.5625 137.375 C-21.72112957 134.4812867 -20.8891964 131.58540603 -20.0625 128.6875 C-19.82402344 127.87087891 -19.58554688 127.05425781 -19.33984375 126.21289062 C-17.50633819 120.37125586 -17.50633819 120.37125586 -17.5625 114.375 C-19.29116687 112.81724113 -19.29116687 112.81724113 -21.625 111.6875 C-26.56638459 108.73197797 -28.98434163 105.27396811 -31.859375 100.3515625 C-33.37271913 98.19069798 -33.37271913 98.19069798 -35.68359375 97.9296875 C-39.85100498 98.57430742 -43.83101313 99.69404093 -47.875 100.875 Z " fill="#000000" transform="translate(190.5625,240.625)"/>
</svg>
