<svg xmlns="http://www.w3.org/2000/svg" version="1.1" width="110" height="135" viewBox="-5.0 -10.0 110.0 135.0">
 <g>
  <path d="m91.602 63.301-11.402-15.402c-0.69922-1-2.3008-1-3 0l-11.5 15.402c-0.39844 0.60156-0.5 1.3008-0.19922 2 0.30078 0.60156 1 1 1.6992 1h4.8008c-1.5 8.3008-7.6016 15.102-15.602 17.5v-35.699h3.5c3.5 0 6.3984-2.8984 6.3984-6.3984s-2.8984-6.3984-6.3984-6.3984h-3.5v-4c5.3008-2.5 8.8008-7.8008 8.8008-13.699 0-8.3984-6.8008-15.199-15.199-15.199-8.3984-0.007812-15.199 6.8945-15.199 15.293 0 5.8984 3.5 11.301 8.8008 13.699v4h-3.5c-3.5 0-6.3984 2.8984-6.3984 6.3984s2.8984 6.3984 6.3984 6.3984h3.5v35.699c-8.1016-2.3984-14.199-9.1992-15.602-17.5h4.8008c0.69922 0 1.3984-0.39844 1.6992-1 0.30078-0.60156 0.30078-1.3984-0.19922-2l-11.5-15.496c-0.69922-1-2.3008-1-3 0l-11.402 15.402c-0.39844 0.60156-0.5 1.3008-0.19922 2 0.30078 0.60156 1 1 1.6992 1h5.1992c2 17.602 16.898 31.199 34.898 31.199s32.898-13.602 34.898-31.199h5.1992c0.69922 0 1.3984-0.39844 1.6992-1 0.30859-0.69922 0.20703-1.4023-0.19141-2zm-8.5-0.69922c-1 0-1.8008 0.80078-1.8984 1.8008-1 16.5-14.699 29.398-31.301 29.398-16.602 0-30.203-13-31.203-29.5-0.10156-1-0.89844-1.8008-1.8984-1.8008h-3.1992l7.6992-10.398 7.6992 10.5h-3.1992c-0.5 0-1 0.19922-1.3984 0.60156-0.39844 0.39844-0.5 0.89844-0.5 1.3984 1 11.602 9.6992 21.301 21.199 23.5 0.60156 0.10156 1.1016 0 1.5-0.39844 0.39844-0.39844 0.69922-0.89844 0.69922-1.3984v-40.004c0-1-0.80078-1.8984-1.8984-1.8984h-5.3008c-1.3984 0-2.6016-1.1992-2.6016-2.6016 0-1.3984 1.1992-2.6016 2.6016-2.6016h5.3008c1 0 1.8984-0.80078 1.8984-1.8984v-7.1016c0-0.80078-0.5-1.5-1.1992-1.8008-4.5-1.6016-7.6016-6-7.6016-10.699 0-6.3008 5.1016-11.398 11.398-11.398 6.3008 0 11.398 5.1016 11.398 11.398 0 4.8008-3.1016 9.1016-7.6016 10.699-0.69922 0.30078-1.1992 1-1.1992 1.8008v7.1016c0 1 0.80078 1.8984 1.8984 1.8984h5.3008c1.3984 0 2.6016 1.1992 2.6016 2.6016 0 1.3984-1.1992 2.6016-2.6016 2.6016h-5.3008c-1 0-1.8984 0.80078-1.8984 1.8984v39.898c0 0.60156 0.19922 1.1016 0.69922 1.3984 0.39844 0.39844 1 0.5 1.5 0.39844 11.605-2.0977 20.305-11.797 21.305-23.395 0-0.5-0.10156-1-0.5-1.3984s-0.89844-0.60156-1.3984-0.60156h-3.1016l7.6992-10.398 7.6992 10.398z"/>
  <path d="m56.199 17.699c0-3.3984-2.8008-6.1992-6.1992-6.1992s-6.1992 2.8008-6.1992 6.1992c0 3.3984 2.8008 6.1992 6.1992 6.1992s6.1992-2.7969 6.1992-6.1992zm-6.1992 2.5c-1.3984 0-2.5-1.1016-2.5-2.5 0-1.3984 1.1016-2.5 2.5-2.5s2.5 1.1016 2.5 2.5c0 1.4023-1.1016 2.5-2.5 2.5z"/>
 </g>
<text x="0.0" y="117.5" font-size="5.0" font-weight="bold" font-family="Arbeit Regular, Helvetica, Arial-Unicode, Arial, Sans-serif" fill="#000000">Created by Adrien Coquet</text><text x="0.0" y="122.5" font-size="5.0" font-weight="bold" font-family="Arbeit Regular, Helvetica, Arial-Unicode, Arial, Sans-serif" fill="#000000">from Noun Project</text></svg>